<?xml version="1.0" standalone="no"?>
<!DOCTYPE svg PUBLIC "-//W3C//DTD SVG 20010904//EN"
 "http://www.w3.org/TR/2001/REC-SVG-20010904/DTD/svg10.dtd">
<svg version="1.0" xmlns="http://www.w3.org/2000/svg"
 width="461.000000pt" height="461.000000pt" viewBox="0 0 461.000000 461.000000"
 preserveAspectRatio="xMidYMid meet">
<metadata>
Created by potrace 1.14, written by Peter Selinger 2001-2017
</metadata>
<g transform="translate(0.000000,461.000000) scale(0.100000,-0.100000)"
fill="#000000" stroke="none">
<path d="M1785 4280 c-3 -5 -1 -11 5 -15 6 -4 8 -11 5 -16 -4 -5 -2 -9 4 -9 5
0 8 -8 6 -17 -1 -10 3 -29 10 -43 7 -14 15 -40 18 -57 3 -17 8 -36 11 -41 3
-5 8 -23 11 -40 3 -18 12 -51 19 -75 8 -23 20 -62 27 -87 17 -61 16 -58 34
-120 8 -30 17 -67 19 -81 5 -29 5 -29 -109 -15 -22 3 -71 8 -110 11 -73 6
-158 15 -187 20 -9 2 -58 7 -109 11 -70 5 -90 4 -84 -5 4 -7 14 -10 22 -7 8 3
12 2 8 -3 -3 -5 0 -15 7 -23 7 -7 14 -20 16 -28 2 -8 7 -17 12 -20 12 -7 24
-61 14 -59 -5 1 -11 1 -14 0 -3 -1 -45 -4 -95 -6 -49 -2 -90 -4 -90 -5 0 -2
-9 -4 -20 -5 -64 -8 -111 -18 -125 -25 -8 -4 -19 -9 -25 -9 -22 -4 -60 -14
-70 -19 -18 -11 -75 -12 -75 -2 0 5 -6 10 -14 10 -8 0 -21 9 -29 20 -8 11 -17
17 -20 13 -4 -3 -7 2 -7 12 0 10 -3 16 -6 12 -3 -3 -21 9 -39 27 -36 36 -58
39 -115 14 -82 -36 -229 -137 -230 -157 0 -8 -3 -12 -6 -8 -13 13 -95 -108
-94 -140 0 -4 16 -33 35 -63 19 -30 35 -61 35 -70 0 -9 -31 -57 -70 -106 -38
-49 -70 -94 -70 -100 0 -6 -12 -24 -27 -40 -15 -16 -26 -30 -25 -32 1 -1 -10
-26 -25 -55 -44 -85 -72 -147 -67 -147 2 0 -3 -11 -12 -25 -9 -14 -13 -25 -9
-25 4 0 3 -6 -3 -12 -6 -7 -11 -16 -11 -20 -1 -5 -1 -9 -2 -10 -5 -18 -10 -41
-18 -83 -6 -27 -13 -61 -16 -75 -16 -74 -21 -236 -11 -350 7 -82 9 -93 26
-160 6 -25 12 -52 14 -60 1 -9 5 -21 10 -28 4 -6 5 -12 2 -12 -3 0 2 -17 11
-38 8 -20 20 -48 26 -62 6 -14 11 -27 12 -30 10 -31 39 -90 44 -90 4 0 8 -6 8
-13 0 -7 16 -39 36 -70 21 -32 37 -60 37 -63 0 -7 63 -88 73 -92 14 -7 7 -39
-13 -57 -11 -10 -17 -22 -14 -26 3 -5 0 -9 -7 -9 -7 0 -9 -8 -4 -23 3 -12 7
-28 7 -34 1 -7 5 -13 10 -13 4 0 8 -4 8 -10 0 -10 21 -38 58 -77 46 -47 176
-120 272 -153 36 -12 72 -24 80 -27 37 -15 85 -14 115 3 31 16 34 16 111 -9
96 -30 157 -46 204 -52 19 -2 35 -4 35 -5 0 -1 34 -4 75 -6 41 -3 84 -7 95 -9
11 -2 23 -4 27 -4 13 -2 4 -22 -22 -50 -14 -15 -38 -44 -55 -65 -32 -40 -36
-45 -74 -76 -13 -11 -20 -20 -15 -20 5 0 2 -5 -6 -11 -15 -10 30 -8 150 6 25
3 65 7 90 10 25 3 54 7 65 9 11 2 49 7 85 10 36 4 76 9 90 11 14 3 46 7 71 10
26 2 66 7 90 9 24 3 90 10 146 16 56 6 110 13 122 15 11 2 51 7 88 10 37 4 76
9 85 11 23 4 48 -21 49 -49 0 -12 2 -31 4 -42 3 -11 7 -38 9 -60 3 -22 7 -52
11 -67 3 -15 6 -50 8 -78 1 -27 4 -50 7 -50 3 0 6 -19 7 -42 3 -49 6 -69 14
-83 4 -5 5 -18 4 -27 -2 -12 3 -18 16 -18 10 0 19 5 19 10 0 6 7 10 16 10 8 0
12 5 9 10 -3 6 -2 10 3 10 6 0 36 26 69 58 32 31 84 80 114 107 100 90 211
189 252 228 23 20 44 37 48 37 4 0 11 9 14 20 3 11 11 20 16 20 5 0 22 11 37
25 l27 25 22 -28 c12 -15 26 -31 31 -37 4 -5 16 -24 27 -42 10 -18 23 -29 29
-26 6 3 8 3 4 -2 -7 -8 19 -51 54 -89 10 -11 18 -24 18 -28 0 -5 10 -19 23
-32 12 -13 30 -35 40 -49 16 -22 22 -24 37 -14 10 6 17 14 15 17 -2 3 12 28
31 55 18 28 34 56 34 63 0 6 4 12 8 12 4 0 19 22 33 50 13 27 28 50 32 50 5 0
5 5 2 10 -3 6 -1 10 5 10 6 0 9 4 6 9 -4 5 -2 11 3 13 10 4 101 155 101 169 0
5 5 9 10 9 6 0 10 4 10 10 0 5 17 38 38 72 20 35 44 77 52 93 8 17 17 32 20
35 3 3 19 31 35 62 53 102 47 99 171 104 60 3 118 5 129 4 28 -2 27 -2 160 5
66 4 141 7 167 9 51 2 88 23 66 37 -7 5 -13 14 -14 21 -3 33 -5 39 -12 34 -4
-2 -8 3 -9 12 -1 18 -10 55 -13 60 -2 1 -3 5 -5 10 -1 4 -9 24 -18 44 -10 21
-17 40 -17 43 0 3 -8 24 -19 48 -46 105 -121 294 -121 305 0 7 -4 12 -10 12
-5 0 -7 7 -4 15 4 8 1 15 -6 15 -6 0 -9 4 -5 9 3 5 1 12 -5 16 -5 3 -10 15
-10 26 0 10 -5 19 -11 19 -5 0 -7 5 -4 10 4 6 1 18 -6 27 -11 13 -32 60 -43
98 -2 6 -8 23 -15 40 -8 20 -9 31 -2 33 6 2 11 8 11 13 0 10 101 142 112 147
5 2 8 8 8 12 0 5 10 20 23 34 53 59 65 74 83 102 11 16 32 41 47 57 15 15 25
27 22 27 -4 0 3 13 14 28 l20 28 -23 27 c-13 15 -27 27 -32 27 -5 0 -23 14
-41 30 -18 17 -37 30 -42 30 -6 0 -11 4 -11 8 0 4 -33 33 -72 63 -40 29 -84
64 -98 77 -14 13 -37 31 -52 40 -16 9 -28 20 -28 24 0 4 -7 8 -15 8 -8 0 -15
4 -15 8 0 4 -25 25 -56 47 -53 38 -84 62 -112 85 -7 6 -16 8 -22 5 -5 -3 -7 4
-5 15 2 11 -1 20 -7 20 -6 0 -7 7 -3 18 9 20 22 73 30 122 3 19 10 52 16 73 5
20 7 43 3 49 -4 7 -3 8 4 4 7 -4 12 -1 13 6 0 7 2 23 5 36 2 12 5 30 7 40 1 9
5 22 8 27 4 6 10 28 14 50 5 22 9 45 11 50 4 17 15 79 17 100 2 16 -4 20 -28
20 -16 0 -35 -3 -40 -7 -9 -6 -40 -14 -85 -22 -8 -2 -22 -6 -30 -9 -23 -9
-222 -58 -252 -62 -15 -2 -32 -6 -38 -10 -9 -6 -42 -14 -80 -20 -8 -1 -22 -5
-30 -8 -38 -15 -171 -43 -178 -38 -4 3 -16 24 -26 46 -10 22 -24 53 -32 69 -8
16 -14 35 -14 43 0 7 -4 13 -10 13 -5 0 -10 11 -10 25 0 14 -4 25 -8 25 -5 0
-15 19 -22 43 -8 23 -17 47 -21 52 -4 6 -24 48 -43 94 -19 46 -42 94 -52 108
l-16 26 -44 -47 c-24 -25 -44 -51 -44 -57 0 -5 -4 -8 -9 -4 -6 3 -15 -4 -21
-16 -6 -11 -28 -38 -48 -59 -80 -82 -207 -222 -215 -235 -14 -25 -44 -37 -59
-22 -7 7 -46 37 -85 66 -40 30 -73 58 -73 62 0 5 -6 9 -14 9 -8 0 -22 10 -30
22 -9 12 -16 19 -16 15 0 -5 -6 -2 -14 5 -8 7 -26 22 -40 33 -15 11 -32 25
-39 30 -6 6 -32 26 -57 45 -61 47 -80 63 -95 78 -8 6 -17 12 -20 12 -4 0 -22
12 -40 28 -17 15 -42 34 -55 42 -12 8 -32 24 -44 35 -12 12 -29 24 -39 28 -9
3 -17 11 -17 17 0 5 -7 10 -15 10 -8 0 -15 4 -15 9 0 13 -28 22 -35 11z"/>
</g>
</svg>
