<?xml version="1.0" encoding="UTF-8"?> <svg xmlns="http://www.w3.org/2000/svg" width="61" height="32" viewBox="0 0 61 32" fill="none"> <path d="M43.2556 15.3475C43.2556 12.5557 42.6119 8.56397 39.5417 5.27016C36.4593 1.96332 31.1007 -0.459973 22.0562 -0.459973V1.54003C30.7566 1.54003 35.4976 3.86479 38.0787 6.63385C40.672 9.41594 41.2556 12.8279 41.2556 15.3475H43.2556ZM22.0562 -0.459973H20.2858V1.54003H22.0562V-0.459973ZM20.2858 -0.459973C11.2606 -0.459973 5.90283 1.96373 2.81597 5.26951C-0.258698 8.56224 -0.913581 12.5532 -0.913581 15.3475H1.08642C1.08642 12.8305 1.67891 9.41766 4.27776 6.63449C6.86442 3.86438 11.6064 1.54003 20.2858 1.54003V-0.459973ZM-0.913581 15.3475V16.5546H1.08642V15.3475H-0.913581ZM-0.913581 16.5546C-0.913581 19.3288 -0.258826 23.3561 2.81096 26.6926C5.89585 30.0455 11.2543 32.5231 20.2858 32.5231V30.5231C11.6126 30.5231 6.87141 28.152 4.28277 25.3385C1.67903 22.5085 1.08642 19.0517 1.08642 16.5546H-0.913581ZM20.2858 32.5231H22.0562V30.5231H20.2858V32.5231ZM22.0562 32.5231C31.1276 32.5231 36.4876 30.0356 39.563 26.6756C42.6228 23.3326 43.2556 19.3046 43.2556 16.5546H41.2556C41.2556 19.0356 40.6812 22.4918 38.0877 25.3253C35.5096 28.1418 30.77 30.5231 22.0562 30.5231V32.5231ZM43.2556 16.5546V15.3475H41.2556V16.5546H43.2556ZM31.4376 16.1925C31.4376 17.7009 30.9701 19.4103 29.5446 20.7501C28.1152 22.0937 25.5799 23.1998 21.171 23.1998V25.1998C25.8961 25.1998 28.9941 24.0124 30.9144 22.2074C32.8387 20.3986 33.4376 18.1043 33.4376 16.1925H31.4376ZM21.171 23.1998C16.769 23.1998 14.2345 22.0671 12.8031 20.7002C11.3719 19.3335 10.9044 17.5999 10.9044 16.112H8.90443C8.90443 18.0042 9.50326 20.3145 11.4218 22.1466C13.3402 23.9786 16.439 25.1998 21.171 25.1998V23.1998ZM10.9044 16.112V15.6292H8.90443V16.112H10.9044ZM10.9044 15.6292C10.9044 14.1248 11.3306 12.4769 12.7168 11.1921C14.1145 9.89661 16.646 8.82306 21.171 8.82306V6.82306C16.3609 6.82306 13.259 7.96258 11.3573 9.7252C9.44399 11.4985 8.90443 13.7536 8.90443 15.6292H10.9044ZM21.171 8.82306C25.6101 8.82306 28.1473 9.89409 29.5693 11.1962C30.9813 12.4891 31.4376 14.1422 31.4376 15.6292H33.4376C33.4376 13.7362 32.8477 11.4863 30.9199 9.72111C29.0022 7.9651 25.9061 6.82306 21.171 6.82306V8.82306ZM31.4376 15.6292V16.1925H33.4376V15.6292H31.4376ZM51.0903 12.4504H52.0903V11.4504H51.0903V12.4504ZM51.0903 31H50.0903V32H51.0903V31ZM60.3852 31V32H61.3852V31H60.3852ZM60.3852 1.06312H61.3852V0.0631182H60.3852V1.06312ZM53.0619 1.06312V0.0631182H52.4069L52.1452 0.663533L53.0619 1.06312ZM44.1291 6.81712L44.0668 5.81906L43.1291 5.87766V6.81712H44.1291ZM44.1291 12.4504H43.1291V13.4504H44.1291V12.4504ZM50.0903 12.4504V31H52.0903V12.4504H50.0903ZM51.0903 32H60.3852V30H51.0903V32ZM61.3852 31V1.06312H59.3852V31H61.3852ZM60.3852 0.0631182H53.0619V2.06312H60.3852V0.0631182ZM52.1452 0.663533C51.5128 2.11445 50.6673 3.30698 49.4354 4.18067C48.2025 5.05512 46.5024 5.66684 44.0668 5.81906L44.1915 7.81517C46.9063 7.64549 48.9886 6.94949 50.5924 5.81204C52.1973 4.67385 53.243 3.15033 53.9786 1.4627L52.1452 0.663533ZM43.1291 6.81712V12.4504H45.1291V6.81712H43.1291ZM44.1291 13.4504H51.0903V11.4504H44.1291V13.4504Z" fill="url(#paint0_linear_1_43)"></path> <defs> <linearGradient id="paint0_linear_1_43" x1="31" y1="-8" x2="31" y2="37" gradientUnits="userSpaceOnUse"> <stop stop-color="white"></stop> <stop offset="1" stop-color="white" stop-opacity="0"></stop> </linearGradient> </defs> </svg> 