<?xml version="1.0" encoding="UTF-8"?> <svg xmlns="http://www.w3.org/2000/svg" width="81" height="32" viewBox="0 0 81 32" fill="none"> <path d="M43.2556 15.3475C43.2556 12.5557 42.6119 8.56397 39.5417 5.27016C36.4593 1.96332 31.1007 -0.459973 22.0562 -0.459973V1.54003C30.7566 1.54003 35.4976 3.86479 38.0787 6.63385C40.672 9.41594 41.2556 12.8279 41.2556 15.3475H43.2556ZM22.0562 -0.459973H20.2858V1.54003H22.0562V-0.459973ZM20.2858 -0.459973C11.2606 -0.459973 5.90283 1.96373 2.81597 5.26951C-0.258698 8.56224 -0.913581 12.5532 -0.913581 15.3475H1.08642C1.08642 12.8305 1.67891 9.41766 4.27776 6.63449C6.86442 3.86438 11.6064 1.54003 20.2858 1.54003V-0.459973ZM-0.913581 15.3475V16.5546H1.08642V15.3475H-0.913581ZM-0.913581 16.5546C-0.913581 19.3288 -0.258826 23.3561 2.81096 26.6926C5.89585 30.0455 11.2543 32.5231 20.2858 32.5231V30.5231C11.6126 30.5231 6.87141 28.152 4.28277 25.3385C1.67903 22.5085 1.08642 19.0517 1.08642 16.5546H-0.913581ZM20.2858 32.5231H22.0562V30.5231H20.2858V32.5231ZM22.0562 32.5231C31.1276 32.5231 36.4876 30.0356 39.563 26.6756C42.6228 23.3326 43.2556 19.3046 43.2556 16.5546H41.2556C41.2556 19.0356 40.6812 22.4918 38.0877 25.3253C35.5096 28.1418 30.77 30.5231 22.0562 30.5231V32.5231ZM43.2556 16.5546V15.3475H41.2556V16.5546H43.2556ZM31.4376 16.1925C31.4376 17.7009 30.9701 19.4103 29.5446 20.7501C28.1152 22.0937 25.5799 23.1998 21.171 23.1998V25.1998C25.8961 25.1998 28.9941 24.0124 30.9144 22.2074C32.8387 20.3986 33.4376 18.1043 33.4376 16.1925H31.4376ZM21.171 23.1998C16.769 23.1998 14.2345 22.0671 12.8031 20.7002C11.3719 19.3335 10.9044 17.5999 10.9044 16.112H8.90443C8.90443 18.0042 9.50326 20.3145 11.4218 22.1466C13.3402 23.9786 16.439 25.1998 21.171 25.1998V23.1998ZM10.9044 16.112V15.6292H8.90443V16.112H10.9044ZM10.9044 15.6292C10.9044 14.1248 11.3306 12.4769 12.7168 11.1921C14.1145 9.89661 16.646 8.82306 21.171 8.82306V6.82306C16.3609 6.82306 13.259 7.96258 11.3573 9.7252C9.44399 11.4985 8.90443 13.7536 8.90443 15.6292H10.9044ZM21.171 8.82306C25.6101 8.82306 28.1473 9.89409 29.5693 11.1962C30.9813 12.4891 31.4376 14.1422 31.4376 15.6292H33.4376C33.4376 13.7362 32.8477 11.4863 30.9199 9.72111C29.0022 7.9651 25.9061 6.82306 21.171 6.82306V8.82306ZM31.4376 15.6292V16.1925H33.4376V15.6292H31.4376ZM80.2413 31V32H81.2413V31H80.2413ZM80.2413 20.0553H81.2413V19.0553H80.2413V20.0553ZM71.0268 20.0553V19.0553H70.0268V20.0553H71.0268ZM71.0268 23.9182V24.9182H72.0268V23.9182H71.0268ZM52.0748 23.9182H51.0748V24.9182H52.0748V23.9182ZM59.9614 20.176L59.797 19.1897L59.7898 19.1909L59.7826 19.1922L59.9614 20.176ZM68.1699 18.808L68.0082 17.8211L68.0055 17.8216L68.1699 18.808ZM44.2285 11.6456H43.2285V12.6456H44.2285V11.6456ZM54.0063 11.6456V12.6456H54.9285L55.003 11.7265L54.0063 11.6456ZM65.3935 12.1687L65.2087 11.186L65.1998 11.1876L65.1909 11.1895L65.3935 12.1687ZM58.3922 13.6173L58.1896 12.638L58.1879 12.6384L58.3922 13.6173ZM43.7054 31H42.7054V32H43.7054V31ZM81.2413 31V20.0553H79.2413V31H81.2413ZM80.2413 19.0553H71.0268V21.0553H80.2413V19.0553ZM70.0268 20.0553V23.9182H72.0268V20.0553H70.0268ZM71.0268 22.9182H52.0748V24.9182H71.0268V22.9182ZM53.0748 23.9182C53.0748 23.8827 53.0783 23.8142 53.1527 23.6983C53.2362 23.5682 53.4324 23.3444 53.8868 23.0646C54.8137 22.4939 56.639 21.7965 60.1403 21.1599L59.7826 19.1922C56.202 19.8432 54.084 20.5944 52.8381 21.3616C52.2061 21.7507 51.7584 22.1682 51.4698 22.6177C51.1719 23.0816 51.0748 23.5312 51.0748 23.9182H53.0748ZM60.1258 21.1624L68.3343 19.7944L68.0055 17.8216L59.797 19.1897L60.1258 21.1624ZM68.3317 19.7948C73.2779 18.9839 76.4078 17.8323 78.291 16.1545C80.2548 14.4049 80.7182 12.2233 80.7182 9.83495H78.7182C78.7182 11.9533 78.3164 13.4533 76.9606 14.6612C75.5242 15.9409 72.88 17.0225 68.0082 17.8211L68.3317 19.7948ZM80.7182 9.83495V9.75447H78.7182V9.83495H80.7182ZM80.7182 9.75447C80.7182 7.14907 79.9137 4.49 77.0978 2.54406C74.3706 0.659382 69.8854 -0.459973 62.7781 -0.459973V1.54003C69.754 1.54003 73.7388 2.65387 75.9608 4.1894C78.0942 5.66366 78.7182 7.61182 78.7182 9.75447H80.7182ZM62.7781 -0.459973H61.1686V1.54003H62.7781V-0.459973ZM61.1686 -0.459973C53.2836 -0.459973 48.7452 1.41271 46.1868 3.93754C43.6202 6.47041 43.2285 9.47948 43.2285 11.3237H45.2285C45.2285 9.7478 45.561 7.36501 47.5916 5.36107C49.6304 3.34909 53.562 1.54003 61.1686 1.54003V-0.459973ZM43.2285 11.3237V11.6456H45.2285V11.3237H43.2285ZM44.2285 12.6456H54.0063V10.6456H44.2285V12.6456ZM55.003 11.7265C55.0536 11.1021 55.1937 10.3834 55.989 9.76364C56.8462 9.09568 58.619 8.42068 62.2952 8.42068V6.42068C58.447 6.42068 56.1357 7.11377 54.7597 8.18609C53.3218 9.30657 53.0796 10.7004 53.0095 11.5648L55.003 11.7265ZM62.2952 8.42068C65.582 8.42068 67.2977 8.69714 68.1645 9.03975C68.579 9.20357 68.7152 9.35062 68.7581 9.41069C68.7921 9.45828 68.8197 9.52136 68.8197 9.67399H70.8197C70.8197 9.24319 70.7316 8.73288 70.3858 8.24857C70.049 7.77675 69.5414 7.4334 68.8996 7.17976C67.654 6.68743 65.6074 6.42068 62.2952 6.42068V8.42068ZM68.8197 9.67399C68.8197 9.84517 68.8011 9.90644 68.787 9.93789C68.778 9.95797 68.7414 10.0355 68.5632 10.1583C68.152 10.4416 67.2297 10.8058 65.2087 11.186L65.5784 13.1515C67.6214 12.7672 68.9121 12.3467 69.698 11.8052C70.1183 11.5155 70.4263 11.1705 70.6122 10.7555C70.793 10.3519 70.8197 9.96556 70.8197 9.67399H68.8197ZM65.1909 11.1895L58.1896 12.638L58.5948 14.5966L65.5961 13.148L65.1909 11.1895ZM58.1879 12.6384C51.1131 14.1149 47.1783 16.5945 45.0426 19.4458C42.9056 22.2989 42.7054 25.3508 42.7054 27.62H44.7054C44.7054 25.4631 44.9076 22.9622 46.6434 20.6448C48.3806 18.3255 51.7892 16.0168 58.5965 14.5962L58.1879 12.6384ZM42.7054 27.62V31H44.7054V27.62H42.7054ZM43.7054 32H80.2413V30H43.7054V32Z" fill="url(#paint0_linear_1_44)"></path> <defs> <linearGradient id="paint0_linear_1_44" x1="40.5" y1="-8" x2="40.5" y2="37" gradientUnits="userSpaceOnUse"> <stop stop-color="white"></stop> <stop offset="1" stop-color="white" stop-opacity="0"></stop> </linearGradient> </defs> </svg> 