<?xml version="1.0" encoding="UTF-8"?> <svg xmlns="http://www.w3.org/2000/svg" width="82" height="32" viewBox="0 0 82 32" fill="none"> <path d="M43.2556 15.3475C43.2556 12.5557 42.6119 8.56397 39.5417 5.27016C36.4593 1.96332 31.1007 -0.459973 22.0562 -0.459973V1.54003C30.7566 1.54003 35.4976 3.86479 38.0787 6.63385C40.672 9.41594 41.2556 12.8279 41.2556 15.3475H43.2556ZM22.0562 -0.459973H20.2858V1.54003H22.0562V-0.459973ZM20.2858 -0.459973C11.2606 -0.459973 5.90283 1.96373 2.81597 5.26951C-0.258698 8.56224 -0.913581 12.5532 -0.913581 15.3475H1.08642C1.08642 12.8305 1.67891 9.41766 4.27776 6.63449C6.86442 3.86438 11.6064 1.54003 20.2858 1.54003V-0.459973ZM-0.913581 15.3475V16.5546H1.08642V15.3475H-0.913581ZM-0.913581 16.5546C-0.913581 19.3288 -0.258826 23.3561 2.81096 26.6926C5.89585 30.0455 11.2543 32.5231 20.2858 32.5231V30.5231C11.6126 30.5231 6.87141 28.152 4.28277 25.3385C1.67903 22.5085 1.08642 19.0517 1.08642 16.5546H-0.913581ZM20.2858 32.5231H22.0562V30.5231H20.2858V32.5231ZM22.0562 32.5231C31.1276 32.5231 36.4876 30.0356 39.563 26.6756C42.6228 23.3326 43.2556 19.3046 43.2556 16.5546H41.2556C41.2556 19.0356 40.6812 22.4918 38.0877 25.3253C35.5096 28.1418 30.77 30.5231 22.0562 30.5231V32.5231ZM43.2556 16.5546V15.3475H41.2556V16.5546H43.2556ZM31.4376 16.1925C31.4376 17.7009 30.9701 19.4103 29.5446 20.7501C28.1152 22.0937 25.5799 23.1998 21.171 23.1998V25.1998C25.8961 25.1998 28.9941 24.0124 30.9144 22.2074C32.8387 20.3986 33.4376 18.1043 33.4376 16.1925H31.4376ZM21.171 23.1998C16.769 23.1998 14.2345 22.0671 12.8031 20.7002C11.3719 19.3335 10.9044 17.5999 10.9044 16.112H8.90443C8.90443 18.0042 9.50326 20.3145 11.4218 22.1466C13.3402 23.9786 16.439 25.1998 21.171 25.1998V23.1998ZM10.9044 16.112V15.6292H8.90443V16.112H10.9044ZM10.9044 15.6292C10.9044 14.1248 11.3306 12.4769 12.7168 11.1921C14.1145 9.89661 16.646 8.82306 21.171 8.82306V6.82306C16.3609 6.82306 13.259 7.96258 11.3573 9.7252C9.44399 11.4985 8.90443 13.7536 8.90443 15.6292H10.9044ZM21.171 8.82306C25.6101 8.82306 28.1473 9.89409 29.5693 11.1962C30.9813 12.4891 31.4376 14.1422 31.4376 15.6292H33.4376C33.4376 13.7362 32.8477 11.4863 30.9199 9.72111C29.0022 7.9651 25.9061 6.82306 21.171 6.82306V8.82306ZM31.4376 15.6292V16.1925H33.4376V15.6292H31.4376ZM75.917 13.6978L75.6936 12.723L75.6552 14.6629L75.917 13.6978ZM44.0487 10.8007H43.0487V11.8007H44.0487V10.8007ZM53.8264 10.8007V11.8007H54.6564L54.8093 10.9849L53.8264 10.8007ZM56.8845 11.9675V10.9675H55.8845V11.9675H56.8845ZM56.8845 18.9287H55.8845V19.9287H56.8845V18.9287ZM53.8264 20.0553L54.8142 19.8994L54.6809 19.0553H53.8264V20.0553ZM43.9682 20.0553V19.0553H42.9682V20.0553H43.9682ZM63.6847 32.5231C71.1518 32.5231 75.8924 31.217 78.7848 29.1069C81.7445 26.9477 82.6307 24.053 82.6307 21.3027H80.6307C80.6307 23.5821 79.9276 25.7976 77.6061 27.4912C75.2173 29.2339 70.9849 30.5231 63.6847 30.5231V32.5231ZM82.6307 21.3027V21.021H80.6307V21.3027H82.6307ZM82.6307 21.021C82.6307 15.7642 78.7887 13.4404 76.1787 12.7326L75.6552 14.6629C77.7933 15.2427 80.6307 17.0232 80.6307 21.021H82.6307ZM76.1403 14.6725C77.2366 14.4213 78.5955 13.843 79.7 12.8606C80.8238 11.861 81.7053 10.4172 81.7053 8.5071H79.7053C79.7053 9.7355 79.1583 10.6658 78.3708 11.3662C77.564 12.0838 76.5287 12.5317 75.6936 12.723L76.1403 14.6725ZM81.7053 8.5071V8.26568H79.7053V8.5071H81.7053ZM81.7053 8.26568C81.7053 7.36597 81.5761 6.31847 81.0659 5.26472C80.5515 4.20239 79.6819 3.20015 78.3051 2.34597C75.5971 0.665859 70.8978 -0.459973 62.8397 -0.459973V1.54003C70.7962 1.54003 75.0297 2.66751 77.2508 4.04547C78.3385 4.72032 78.9326 5.44831 79.2658 6.13632C79.6031 6.8329 79.7053 7.55587 79.7053 8.26568H81.7053ZM62.8397 -0.459973H61.1497V1.54003H62.8397V-0.459973ZM61.1497 -0.459973C53.0769 -0.459973 48.5078 1.34587 45.959 3.70989C43.3884 6.09399 43.0487 8.87994 43.0487 10.3983H45.0487C45.0487 9.18044 45.3125 7.03727 47.319 5.17628C49.3471 3.29523 53.3286 1.54003 61.1497 1.54003V-0.459973ZM43.0487 10.3983V10.8007H45.0487V10.3983H43.0487ZM44.0487 11.8007H53.8264V9.80065H44.0487V11.8007ZM54.8093 10.9849C54.8547 10.743 54.8598 10.6073 54.9537 10.387C55.0363 10.1935 55.1992 9.92875 55.572 9.65005C56.35 9.06838 58.1086 8.38044 62.0349 8.38044V6.38044C57.9539 6.38044 55.6686 7.08071 54.3745 8.04819C53.7111 8.54407 53.3308 9.09414 53.1141 9.60231C52.9088 10.0836 52.8586 10.5364 52.8436 10.6164L54.8093 10.9849ZM62.0349 8.38044C66.1211 8.38044 68.1548 8.7676 69.1393 9.19728C69.6092 9.40236 69.763 9.58456 69.815 9.66612C69.8631 9.74169 69.8872 9.82807 69.8872 9.9959H71.8872C71.8872 9.62051 71.8309 9.10835 71.5018 8.59168C71.1766 8.08099 70.6564 7.67723 69.9393 7.36425C68.5498 6.7578 66.1573 6.38044 62.0349 6.38044V8.38044ZM69.8872 9.9959C69.8872 10.2743 69.8335 10.3953 69.6386 10.5234C69.3325 10.7248 68.6031 10.9675 66.9842 10.9675V12.9675C68.705 12.9675 69.9271 12.7275 70.7376 12.1945C71.6594 11.5882 71.8872 10.7234 71.8872 9.9959H69.8872ZM66.9842 10.9675H56.8845V12.9675H66.9842V10.9675ZM55.8845 11.9675V18.9287H57.8845V11.9675H55.8845ZM56.8845 19.9287H67.467V17.9287H56.8845V19.9287ZM67.467 19.9287C69.1682 19.9287 69.9544 20.2168 70.3003 20.4676C70.5638 20.6587 70.6518 20.8849 70.6518 21.2625H72.6518C72.6518 20.4731 72.4178 19.5325 71.4742 18.8484C70.613 18.224 69.3068 17.9287 67.467 17.9287V19.9287ZM70.6518 21.2625C70.6518 21.4976 70.6269 21.684 70.5426 21.8586C70.4636 22.0222 70.2902 22.2619 69.8447 22.5186C68.8969 23.0648 66.8686 23.6022 62.6385 23.6022V25.6022C66.9388 25.6022 69.4171 25.0733 70.8433 24.2514C71.5849 23.8241 72.0654 23.3043 72.3435 22.7285C72.6163 22.1637 72.6518 21.6309 72.6518 21.2625H70.6518ZM62.6385 23.6022C58.6509 23.6022 56.7585 22.6868 55.8534 21.8722C54.9661 21.0736 54.8674 20.2361 54.8142 19.8994L52.8387 20.2113C52.9062 20.639 53.0892 22.0751 54.5155 23.3588C55.9241 24.6265 58.3773 25.6022 62.6385 25.6022V23.6022ZM53.8264 19.0553H43.9682V21.0553H53.8264V19.0553ZM42.9682 20.0553V20.3772H44.9682V20.0553H42.9682ZM42.9682 20.3772C42.9682 22.0612 43.3901 25.1482 46.0649 27.8063C48.7382 30.463 53.4932 32.5231 61.7935 32.5231V30.5231C53.7976 30.5231 49.6399 28.5393 47.4746 26.3876C45.3108 24.2373 44.9682 21.7513 44.9682 20.3772H42.9682ZM61.7935 32.5231H63.6847V30.5231H61.7935V32.5231Z" fill="url(#paint0_linear_1_45)"></path> <defs> <linearGradient id="paint0_linear_1_45" x1="41" y1="-8" x2="41" y2="37" gradientUnits="userSpaceOnUse"> <stop stop-color="white"></stop> <stop offset="1" stop-color="white" stop-opacity="0"></stop> </linearGradient> </defs> </svg> 