<?xml version="1.0" encoding="UTF-8"?> <svg xmlns="http://www.w3.org/2000/svg" width="81" height="32" viewBox="0 0 81 32" fill="none"> <path d="M43.2556 15.3475C43.2556 12.5557 42.6119 8.56397 39.5417 5.27016C36.4593 1.96332 31.1007 -0.459973 22.0562 -0.459973V1.54003C30.7566 1.54003 35.4976 3.86479 38.0787 6.63385C40.672 9.41594 41.2556 12.8279 41.2556 15.3475H43.2556ZM22.0562 -0.459973H20.2858V1.54003H22.0562V-0.459973ZM20.2858 -0.459973C11.2606 -0.459973 5.90283 1.96373 2.81597 5.26951C-0.258698 8.56224 -0.913581 12.5532 -0.913581 15.3475H1.08642C1.08642 12.8305 1.67891 9.41766 4.27776 6.63449C6.86442 3.86438 11.6064 1.54003 20.2858 1.54003V-0.459973ZM-0.913581 15.3475V16.5546H1.08642V15.3475H-0.913581ZM-0.913581 16.5546C-0.913581 19.3288 -0.258826 23.3561 2.81096 26.6926C5.89585 30.0455 11.2543 32.5231 20.2858 32.5231V30.5231C11.6126 30.5231 6.87141 28.152 4.28277 25.3385C1.67903 22.5085 1.08642 19.0517 1.08642 16.5546H-0.913581ZM20.2858 32.5231H22.0562V30.5231H20.2858V32.5231ZM22.0562 32.5231C31.1276 32.5231 36.4876 30.0356 39.563 26.6756C42.6228 23.3326 43.2556 19.3046 43.2556 16.5546H41.2556C41.2556 19.0356 40.6812 22.4918 38.0877 25.3253C35.5096 28.1418 30.77 30.5231 22.0562 30.5231V32.5231ZM43.2556 16.5546V15.3475H41.2556V16.5546H43.2556ZM31.4376 16.1925C31.4376 17.7009 30.9701 19.4103 29.5446 20.7501C28.1152 22.0937 25.5799 23.1998 21.171 23.1998V25.1998C25.8961 25.1998 28.9941 24.0124 30.9144 22.2074C32.8387 20.3986 33.4376 18.1043 33.4376 16.1925H31.4376ZM21.171 23.1998C16.769 23.1998 14.2345 22.0671 12.8031 20.7002C11.3719 19.3335 10.9044 17.5999 10.9044 16.112H8.90443C8.90443 18.0042 9.50326 20.3145 11.4218 22.1466C13.3402 23.9786 16.439 25.1998 21.171 25.1998V23.1998ZM10.9044 16.112V15.6292H8.90443V16.112H10.9044ZM10.9044 15.6292C10.9044 14.1248 11.3306 12.4769 12.7168 11.1921C14.1145 9.89661 16.646 8.82306 21.171 8.82306V6.82306C16.3609 6.82306 13.259 7.96258 11.3573 9.7252C9.44399 11.4985 8.90443 13.7536 8.90443 15.6292H10.9044ZM21.171 8.82306C25.6101 8.82306 28.1473 9.89409 29.5693 11.1962C30.9813 12.4891 31.4376 14.1422 31.4376 15.6292H33.4376C33.4376 13.7362 32.8477 11.4863 30.9199 9.72111C29.0022 7.9651 25.9061 6.82306 21.171 6.82306V8.82306ZM31.4376 15.6292V16.1925H33.4376V15.6292H31.4376ZM54.5507 13.3759H53.5507V15.4333L55.1685 14.1622L54.5507 13.3759ZM54.5507 8.02425V7.02425H53.5507V8.02425H54.5507ZM78.0496 8.02425V9.02425H79.0496V8.02425H78.0496ZM78.0496 1.06312H79.0496V0.0631182H78.0496V1.06312ZM45.3363 1.06312V0.0631182H44.3363V1.06312H45.3363ZM45.3363 19.4518H44.3363V20.4518H45.3363V19.4518ZM54.4702 19.4518V20.4518H55.2245L55.4318 19.7265L54.4702 19.4518ZM54.591 21.6246L55.5557 21.3615L55.3548 20.6246H54.591V21.6246ZM44.6925 21.6246V20.6246H43.6925V21.6246H44.6925ZM63.564 32.5231C70.5204 32.5231 74.9382 31.0638 77.6269 28.8029C80.3487 26.514 81.1419 23.5388 81.1419 20.9003H79.1419C79.1419 23.1306 78.4866 25.4668 76.3397 27.2721C74.1596 29.1054 70.2884 30.5231 63.564 30.5231V32.5231ZM81.1419 20.9003V20.6589H79.1419V20.9003H81.1419ZM81.1419 20.6589C81.1419 17.7624 80.4237 14.9074 77.9572 12.8145C75.5335 10.7581 71.6051 9.59946 65.5759 9.59946V11.5995C71.4168 11.5995 74.7714 12.7344 76.6632 14.3396C78.5122 15.9084 79.1419 18.0831 79.1419 20.6589H81.1419ZM65.5759 9.59946H65.2137V11.5995H65.5759V9.59946ZM65.2137 9.59946C61.444 9.59946 58.7972 10.2005 56.9918 10.887C55.1739 11.5782 54.2465 12.3432 53.9329 12.5895L55.1685 14.1622C55.4183 13.9659 56.1607 13.3427 57.7027 12.7564C59.2572 12.1653 61.6601 11.5995 65.2137 11.5995V9.59946ZM55.5507 13.3759V8.02425H53.5507V13.3759H55.5507ZM54.5507 9.02425H78.0496V7.02425H54.5507V9.02425ZM79.0496 8.02425V1.06312H77.0496V8.02425H79.0496ZM78.0496 0.0631182H45.3363V2.06312H78.0496V0.0631182ZM44.3363 1.06312V19.4518H46.3363V1.06312H44.3363ZM45.3363 20.4518H54.4702V18.4518H45.3363V20.4518ZM55.4318 19.7265C55.3903 19.8715 55.4249 19.4823 56.3155 19.031C57.2425 18.5613 59.0788 18.0375 62.5983 18.0375V16.0375C58.9152 16.0375 56.7277 16.58 55.4115 17.247C54.0588 17.9324 53.6306 18.7504 53.5087 19.177L55.4318 19.7265ZM62.5983 18.0375C65.9868 18.0375 67.6708 18.5416 68.4894 19.0835C68.8751 19.3389 69.0654 19.6002 69.1704 19.8368C69.2809 20.0856 69.3239 20.3686 69.3239 20.6991H71.3239C71.3239 20.2048 71.2613 19.6176 70.9984 19.0253C70.7299 18.4206 70.2789 17.8696 69.5933 17.4158C68.2693 16.5393 66.0904 16.0375 62.5983 16.0375V18.0375ZM69.3239 20.6991V20.9406H71.3239V20.6991H69.3239ZM69.3239 20.9406C69.3239 21.2711 69.2809 21.5541 69.1704 21.8029C69.0654 22.0395 68.8751 22.3008 68.4894 22.5562C67.6708 23.0981 65.9868 23.6022 62.5983 23.6022V25.6022C66.0904 25.6022 68.2693 25.1004 69.5933 24.2239C70.2789 23.7701 70.7299 23.2191 70.9984 22.6144C71.2613 22.0221 71.3239 21.4349 71.3239 20.9406H69.3239ZM62.5983 23.6022C59.0735 23.6022 57.318 22.982 56.4612 22.436C56.0405 22.168 55.8284 21.9132 55.7186 21.7404C55.61 21.5695 55.5785 21.4448 55.5557 21.3615L53.6262 21.8877C53.6638 22.0257 53.758 22.3839 54.0304 22.8128C54.3016 23.2397 54.7258 23.7017 55.3865 24.1227C56.6924 24.9549 58.8802 25.6022 62.5983 25.6022V23.6022ZM54.591 20.6246H44.6925V22.6246H54.591V20.6246ZM43.6925 21.6246V21.9063H45.6925V21.6246H43.6925ZM43.6925 21.9063C43.6925 23.5905 44.2507 26.3025 46.8865 28.5737C49.5011 30.8268 54.0193 32.5231 61.6728 32.5231V30.5231C54.2774 30.5231 50.3054 28.8797 48.1921 27.0586C46.0999 25.2558 45.6925 23.1594 45.6925 21.9063H43.6925ZM61.6728 32.5231H63.564V30.5231H61.6728V32.5231Z" fill="url(#paint0_linear_1_47)"></path> <defs> <linearGradient id="paint0_linear_1_47" x1="40" y1="-8" x2="40" y2="37" gradientUnits="userSpaceOnUse"> <stop stop-color="white"></stop> <stop offset="1" stop-color="white" stop-opacity="0"></stop> </linearGradient> </defs> </svg> 